<svg width="8" height="11" viewBox="0 0 8 11" fill="none" xmlns="http://www.w3.org/2000/svg">
<path d="M0.988465 4.64712C0.488093 4.64712 0.383721 4.74535 0.383721 5.21554V6.06842C0.383721 6.53912 0.488093 6.63684 0.988465 6.63684H2.19744V10.0479C2.19744 10.5186 2.30233 10.6163 2.80219 10.6163H4.01167C4.51205 10.6163 4.61642 10.518 4.61642 10.0479V6.63684H5.97428C6.3534 6.63684 6.45112 6.56777 6.55549 6.22447L6.81488 5.37209C6.99344 4.78423 6.88293 4.64712 6.23316 4.64712H4.61642V3.22633C4.61642 2.91219 4.88707 2.6574 5.22065 2.6574H6.94177C7.44214 2.6574 7.54651 2.55967 7.54651 2.08949V0.951628C7.54651 0.481442 7.44214 0.383721 6.94177 0.383721H5.22065C3.55121 0.383721 2.19744 1.65614 2.19744 3.22633V4.64712H0.988465Z" stroke="#F7F7F7" stroke-width="0.75" stroke-linecap="round" stroke-linejoin="round"/>
</svg>
