<svg width="10" height="10" viewBox="0 0 10 10" fill="none" xmlns="http://www.w3.org/2000/svg">
<path d="M3.51377 8.49415C1.35539 9.19688 1.35539 7.23928 0.502072 6.9883M6.52547 9.49805V7.74123C6.52547 7.23928 6.57567 7.0385 6.2745 6.73733C7.67995 6.58674 9.03522 6.0346 9.03522 3.72563C9.03461 3.12578 8.80058 2.54972 8.38269 2.11939C8.57868 1.59835 8.56064 1.02094 8.33249 0.51315C8.33249 0.51315 7.78035 0.362566 6.57567 1.16569C5.55532 0.899947 4.48392 0.899947 3.46358 1.16569C2.2589 0.362566 1.70675 0.51315 1.70675 0.51315C1.47861 1.02094 1.46056 1.59835 1.65656 2.11939C1.23866 2.54972 1.00463 3.12578 1.00402 3.72563C1.00402 6.0346 2.35929 6.58674 3.76475 6.73733C3.46358 7.0385 3.46358 7.33967 3.51377 7.74123V9.49805" stroke="#F7F7F7" stroke-linecap="round" stroke-linejoin="round"/>
</svg>
