<svg width="9" height="9" viewBox="0 0 9 9" fill="none" xmlns="http://www.w3.org/2000/svg">
<path d="M6.75 2.25V2.255M0.5 2.5C0.5 1.96957 0.710714 1.46086 1.08579 1.08579C1.46086 0.710714 1.96957 0.5 2.5 0.5H6.5C7.03043 0.5 7.53914 0.710714 7.91421 1.08579C8.28929 1.46086 8.5 1.96957 8.5 2.5V6.5C8.5 7.03043 8.28929 7.53914 7.91421 7.91421C7.53914 8.28929 7.03043 8.5 6.5 8.5H2.5C1.96957 8.5 1.46086 8.28929 1.08579 7.91421C0.710714 7.53914 0.5 7.03043 0.5 6.5V2.5ZM3 4.5C3 4.89782 3.15804 5.27936 3.43934 5.56066C3.72064 5.84196 4.10218 6 4.5 6C4.89782 6 5.27936 5.84196 5.56066 5.56066C5.84196 5.27936 6 4.89782 6 4.5C6 4.10218 5.84196 3.72064 5.56066 3.43934C5.27936 3.15804 4.89782 3 4.5 3C4.10218 3 3.72064 3.15804 3.43934 3.43934C3.15804 3.72064 3 4.10218 3 4.5Z" stroke="#F7F7F7" stroke-linecap="round" stroke-linejoin="round"/>
</svg>
