<svg width="11" height="11" viewBox="0 0 11 11" fill="none" xmlns="http://www.w3.org/2000/svg">
<path d="M1.66279 4.22093H1.40698C0.924511 4.22093 0.683535 4.22093 0.533628 4.37084C0.383721 4.52074 0.383721 4.76172 0.383721 5.24418V9.59302C0.383721 10.0755 0.383721 10.3165 0.533628 10.4664C0.683535 10.6163 0.924511 10.6163 1.40698 10.6163H1.66279C2.14526 10.6163 2.38623 10.6163 2.53614 10.4664C2.68605 10.3165 2.68605 10.0755 2.68605 9.59302V5.24418C2.68605 4.76172 2.68605 4.52074 2.53614 4.37084C2.38623 4.22093 2.14526 4.22093 1.66279 4.22093ZM2.68605 1.53488C2.68605 1.84019 2.56476 2.13299 2.34888 2.34888C2.13299 2.56476 1.84019 2.68605 1.53488 2.68605C1.22958 2.68605 0.936773 2.56476 0.720888 2.34888C0.505004 2.13299 0.383721 1.84019 0.383721 1.53488C0.383721 1.22958 0.505004 0.936773 0.720888 0.720888C0.936773 0.505004 1.22958 0.383721 1.53488 0.383721C1.84019 0.383721 2.13299 0.505004 2.34888 0.720888C2.56476 0.936773 2.68605 1.22958 2.68605 1.53488ZM5.66679 4.22093H5.24418C4.76172 4.22093 4.52074 4.22093 4.37084 4.37084C4.22093 4.52074 4.22093 4.76172 4.22093 5.24418V9.59302C4.22093 10.0755 4.22093 10.3165 4.37084 10.4664C4.52074 10.6163 4.76172 10.6163 5.24418 10.6163H5.5C5.98246 10.6163 6.22344 10.6163 6.37335 10.4664C6.52325 10.3165 6.52325 10.0755 6.52325 9.59302V7.80232C6.52325 6.95456 6.79339 6.26744 7.59153 6.26744C7.9906 6.26744 8.31395 6.61125 8.31395 7.03488V9.33721C8.31395 9.81967 8.31395 10.0606 8.46386 10.2106C8.61376 10.3605 8.85474 10.3605 9.33721 10.3605H9.59251C10.0745 10.3605 10.3159 10.3605 10.4659 10.2106C10.6153 10.0606 10.6158 9.81967 10.6158 9.33772L10.6163 6.52325C10.6163 5.25135 9.40679 4.22093 8.21009 4.22093C7.5286 4.22093 6.92079 4.55451 6.52325 5.07688C6.52325 4.75456 6.52325 4.59339 6.45316 4.47367C6.40883 4.39792 6.34575 4.33484 6.27 4.29051C6.15028 4.22042 5.98911 4.22093 5.66679 4.22093Z" stroke="#F7F7F7" stroke-width="0.75" stroke-linecap="round" stroke-linejoin="round"/>
</svg>
