<svg width="10" height="10" viewBox="0 0 10 10" fill="none" xmlns="http://www.w3.org/2000/svg">
<path d="M9.5 2.9585V4.9755C8.59304 4.88547 7.72825 4.54803 7 4V6.25C6.99986 6.86056 6.82774 7.45874 6.50335 7.976C6.17895 8.49326 5.71541 8.90868 5.16583 9.17467C4.61625 9.44066 4.00286 9.54645 3.39593 9.47993C2.789 9.41341 2.21308 9.17727 1.73415 8.79856C1.25523 8.41985 0.89267 7.91389 0.688013 7.33865C0.483357 6.76341 0.444881 6.14215 0.576994 5.54605C0.709107 4.94995 1.00647 4.40312 1.435 3.96821C1.86354 3.5333 2.40592 3.2279 3 3.087V5.25C2.82954 5.37784 2.6946 5.54714 2.60797 5.7418C2.52134 5.93647 2.48592 6.15005 2.50505 6.36226C2.52419 6.57447 2.59725 6.77826 2.7173 6.95429C2.83735 7.13032 3.00041 7.27275 3.19098 7.36803C3.38156 7.46332 3.59333 7.50831 3.80619 7.49874C4.01904 7.48916 4.22592 7.42533 4.40716 7.31331C4.58841 7.2013 4.73802 7.04481 4.84178 6.85871C4.94554 6.6726 5 6.46307 5 6.25V0.5H7.0415C7.14561 1.1142 7.43819 1.68081 7.87869 2.12131C8.31919 2.56181 8.8858 2.85439 9.5 2.9585Z" stroke="#F7F7F7" stroke-linecap="round" stroke-linejoin="round"/>
</svg>
