<svg width="11" height="10" viewBox="0 0 11 10" fill="none" xmlns="http://www.w3.org/2000/svg">
<path d="M10.5 0.554483C10 0.799483 9.51 0.898983 9 1.04948C8.4395 0.416983 7.6085 0.381983 6.81 0.680983C6.0115 0.979983 5.4885 1.71098 5.5 2.54948V3.04948C3.8775 3.09098 2.4325 2.35198 1.5 1.04948C1.5 1.04948 -0.591 4.76598 3.5 6.54948C2.564 7.17298 1.6305 7.59348 0.5 7.54948C2.154 8.45098 3.9565 8.76098 5.517 8.30798C7.307 7.78798 8.778 6.44648 9.3425 4.43698C9.51114 3.82587 9.59476 3.19443 9.591 2.56048C9.591 2.43598 10.346 1.17498 10.5 0.554483Z" stroke="#F7F7F7" stroke-linecap="round" stroke-linejoin="round"/>
</svg>
