<?xml version="1.0" encoding="UTF-8"?>
<svg id="Capa_2" data-name="Capa 2" xmlns="http://www.w3.org/2000/svg" viewBox="0 0 320 80.69">
  <defs>
    <style>
      .cls-1 {
        fill: #fff7e7;
      }
    </style>
  </defs>
  <g id="Layer_1" data-name="Layer 1">
    <g>
      <polygon class="cls-1" points="40.72 25.44 13.57 25.44 13.57 0 0 0 0 63.6 13.57 63.6 13.57 37.5 40.72 37.5 40.72 63.6 54.3 63.6 54.3 0 40.72 0 40.72 25.44"/>
      <path class="cls-1" d="M93.88,46.7c-.57,1.33-1.36,2.52-2.37,3.56-1.01,1.04-2.28,1.85-3.8,2.42-1.52.57-3.39.85-5.6.85s-4.19-.43-5.93-1.28c-1.74-.85-3.08-2.15-4.03-3.89-.68-1.25-1.11-2.76-1.3-4.51h31.68c.13-.57.24-1.41.33-2.52.1-1.11.14-2.17.14-3.18,0-4.05-.82-7.75-2.47-11.11-1.65-3.35-4.11-6.01-7.4-7.97-3.29-1.96-7.4-2.94-12.34-2.94-4.49,0-8.45,1.01-11.87,3.04-3.42,2.03-6.08,4.86-7.97,8.5-1.9,3.64-2.85,7.86-2.85,12.67s.95,8.96,2.85,12.63c1.9,3.67,4.64,6.52,8.21,8.54,3.57,2.03,7.83,3.04,12.77,3.04,5.25,0,9.51-.98,12.77-2.94,3.26-1.96,5.74-4.18,7.45-6.65l-8.26-8.26ZM80.88,26.58c3.35,0,5.85.97,7.5,2.9,1.36,1.6,2.15,3.81,2.39,6.6h-19.93c.28-2.83,1.14-5.03,2.6-6.6,1.8-1.93,4.29-2.9,7.45-2.9Z"/>
      <path class="cls-1" d="M130.52,39.02l-3.51,15.57-3.42-15.57-6.65-21.93h-15l15.09,43.48h8.21l-.9,2.47c-.76,2.21-1.71,3.72-2.85,4.51-1.14.79-2.6,1.19-4.37,1.19-2.03,0-3.91-.54-5.65-1.61-1.74-1.08-3.34-2.47-4.79-4.18l-5.41,11.39c1.08,1.08,2.42,2.1,4.03,3.08,1.61.98,3.47,1.77,5.55,2.37,2.09.6,4.3.9,6.65.9,4.37,0,8.02-1.09,10.96-3.28,2.94-2.18,5.33-5.84,7.17-10.96l16.71-49.36h-15.28l-6.55,21.93Z"/>
      <polygon class="cls-1" points="194.41 23.64 188.43 42.53 182.45 23.64 172.1 0 154.16 0 154.16 63.6 167.74 63.6 167.74 39.77 165.74 14.14 173.43 35.31 181.31 52.59 195.55 52.59 203.43 35.31 211.02 14.14 209.12 39.77 209.12 63.6 222.7 63.6 222.7 0 204.76 0 194.41 23.64"/>
      <path class="cls-1" d="M262.05,19.22c-3.58-2.06-7.77-3.09-12.58-3.09s-8.78,1.03-12.29,3.09c-3.51,2.06-6.22,4.91-8.12,8.54-1.9,3.64-2.85,7.83-2.85,12.58s.95,8.86,2.85,12.53c1.9,3.67,4.6,6.54,8.12,8.59,3.51,2.06,7.61,3.08,12.29,3.08s9-1.03,12.58-3.08c3.57-2.06,6.33-4.92,8.26-8.59,1.93-3.67,2.89-7.85,2.89-12.53s-.96-8.94-2.89-12.58c-1.93-3.64-4.68-6.49-8.26-8.54ZM258.2,47.99c-.82,1.93-1.96,3.34-3.42,4.22-1.46.89-3.17,1.33-5.13,1.33s-3.58-.44-5.03-1.33c-1.46-.89-2.6-2.29-3.42-4.22-.82-1.93-1.23-4.48-1.23-7.64s.41-5.71,1.23-7.64c.82-1.93,1.96-3.34,3.42-4.22,1.45-.89,3.13-1.33,5.03-1.33s3.67.44,5.13,1.33c1.45.89,2.59,2.29,3.42,4.22.82,1.93,1.23,4.48,1.23,7.64s-.41,5.71-1.23,7.64Z"/>
      <path class="cls-1" d="M306.42,17.09v25.73c0,2.53-.25,4.62-.76,6.26-.51,1.65-1.38,2.88-2.61,3.7-1.23.82-2.93,1.23-5.08,1.23-3.1,0-5.17-.82-6.22-2.47-1.04-1.64-1.57-3.89-1.57-6.74v-27.72h-13.58v32.47c0,3.17.58,5.87,1.76,8.12,1.17,2.25,2.82,3.96,4.94,5.13,2.12,1.17,4.67,1.76,7.64,1.76,3.54,0,6.42-.82,8.64-2.47,2.22-1.64,3.91-3.75,5.08-6.31.78-1.71,1.36-3.49,1.76-5.33v13.16h13.58V17.09h-13.58Z"/>
    </g>
  </g>
</svg>